<?xml version="1.0" standalone="no"?>
<!DOCTYPE svg PUBLIC "-//W3C//DTD SVG 20010904//EN"
 "http://www.w3.org/TR/2001/REC-SVG-20010904/DTD/svg10.dtd">
<svg version="1.0" xmlns="http://www.w3.org/2000/svg"
 width="974.000000pt" height="862.000000pt" viewBox="0 0 974.000000 862.000000"
 preserveAspectRatio="xMidYMid meet">

<g transform="translate(0.000000,862.000000) scale(0.100000,-0.100000)"
fill="#000000" stroke="none">
<path d="M5938 8595 c-2 -2 -780 -5 -1729 -8 -1377 -4 -1731 -7 -1750 -17 -13
-7 -115 -98 -226 -202 -701 -651 -729 -679 -719 -704 3 -9 6 -19 6 -24 0 -5
38 -49 84 -99 418 -454 567 -1207 415 -2091 -30 -172 -116 -529 -154 -638 -3
-8 -23 2 -59 31 -127 104 -246 169 -358 194 -61 14 -84 14 -141 5 -174 -30
-272 -134 -326 -348 -31 -123 -255 -656 -332 -789 -27 -46 -49 -133 -49 -190
0 -184 85 -338 216 -392 37 -15 44 -21 38 -38 -3 -11 -8 -74 -11 -140 -4 -100
-2 -135 16 -210 84 -351 442 -764 971 -1121 299 -202 373 -237 1049 -508 646
-259 771 -314 1122 -487 375 -185 518 -273 759 -463 102 -81 139 -104 155
-100 29 9 73 44 173 137 210 195 507 370 982 580 199 88 810 333 1200 482 354
134 603 256 811 394 181 120 273 197 409 338 288 299 409 586 427 1015 l6 137
35 12 c75 25 157 143 187 271 25 108 22 123 -59 280 -116 223 -189 416 -225
597 -83 404 -224 549 -510 526 -131 -10 -229 -53 -369 -162 -30 -23 -58 -43
-62 -43 -28 0 -137 616 -175 989 -17 178 -20 546 -4 689 27 244 105 536 200
743 49 108 72 144 181 283 103 132 103 144 10 235 -175 171 -702 675 -788 754
l-97 88 -653 -2 c-359 -1 -655 -3 -656 -4z m1002 -143 l0 -69 -212 -6 c-116
-4 -790 -7 -1497 -7 -707 0 -1600 -3 -1983 -7 l-697 -6 -363 -335 c-200 -183
-369 -339 -376 -346 -11 -11 -6 -21 24 -57 119 -142 248 -386 323 -614 89
-272 125 -501 125 -810 1 -463 -78 -951 -238 -1481 -80 -266 -98 -364 -103
-585 -4 -144 -2 -209 12 -295 42 -270 146 -482 325 -665 155 -158 307 -255
605 -387 992 -440 1788 -852 1925 -996 l34 -36 36 34 c51 49 190 153 320 240
211 142 377 221 891 419 383 148 481 191 677 293 89 46 165 84 167 84 2 0 6
-46 8 -103 l3 -102 2 110 3 110 92 57 c141 87 253 173 358 278 245 243 335
452 360 838 14 224 5 299 -81 662 -84 353 -144 707 -182 1065 -14 135 -17 586
-5 745 11 151 69 425 126 598 77 235 171 411 280 525 l36 38 -100 97 c-55 53
-229 220 -387 370 l-287 272 -106 0 -105 0 0 70 0 70 134 0 133 0 452 -431
452 -430 -23 -32 c-13 -18 -41 -55 -63 -82 -98 -122 -136 -188 -200 -343 -94
-230 -166 -544 -186 -805 -26 -339 38 -938 157 -1482 19 -88 40 -187 45 -220
l11 -60 97 95 c99 98 165 143 273 188 54 23 78 27 168 27 98 0 109 -2 158 -29
56 -31 101 -85 145 -171 32 -64 50 -127 81 -281 34 -164 89 -312 203 -543 l96
-193 -12 -65 c-7 -36 -23 -89 -38 -117 -44 -88 -88 -123 -173 -139 l-35 -7 7
-103 c22 -316 -61 -619 -240 -872 -70 -99 -290 -321 -397 -402 -260 -196 -468
-303 -950 -490 -148 -58 -275 -107 -282 -110 -9 -4 -13 20 -16 89 l-3 93 -2
-95 -2 -96 -202 -78 c-459 -178 -957 -398 -1172 -517 -231 -128 -439 -273
-571 -400 -45 -43 -85 -79 -89 -79 -4 0 -48 35 -99 78 -361 304 -933 589
-2082 1037 -407 159 -587 248 -835 415 -500 335 -837 708 -941 1040 -20 64
-24 96 -24 210 1 116 4 143 23 190 12 30 22 56 22 57 0 1 -19 4 -43 8 -63 11
-144 52 -172 89 -54 71 -69 123 -69 236 l0 105 61 120 c129 255 287 632 318
760 47 192 140 278 300 278 161 1 378 -136 484 -304 25 -40 42 -58 45 -49 2 8
13 49 24 90 11 41 43 159 71 263 66 237 116 475 143 681 26 197 31 622 10 801
-57 465 -220 862 -469 1141 l-73 83 68 64 c37 35 216 200 397 367 182 167 354
326 383 354 l52 51 2068 5 c1137 4 2136 7 2220 8 l152 2 0 -68z m-1869 -438
c341 -64 638 -279 800 -579 204 -378 181 -831 -61 -1184 -68 -99 -203 -235
-298 -300 -450 -305 -1053 -251 -1441 129 -606 596 -367 1623 441 1894 164 55
392 72 559 40z m-1391 -307 c0 -2 -16 -41 -36 -87 -82 -189 -120 -421 -111
-675 6 -175 19 -234 96 -455 96 -279 113 -306 343 -547 123 -129 221 -255 238
-309 18 -54 7 -175 -30 -334 -66 -280 -35 -459 103 -607 100 -106 286 -245
370 -276 9 -3 17 -11 17 -17 0 -6 63 -10 180 -10 104 0 180 4 180 9 0 5 25 21
56 35 93 43 186 111 292 213 193 188 223 326 148 683 -45 221 -46 267 -5 349
32 64 41 75 287 343 165 180 174 195 253 404 157 418 159 873 3 1203 -19 41
-32 76 -30 78 9 9 97 -41 153 -87 116 -93 210 -248 277 -455 32 -98 36 -122
36 -216 0 -228 -61 -413 -211 -641 -128 -195 -184 -344 -177 -469 4 -76 27
-119 69 -129 21 -5 25 -13 30 -65 6 -66 19 -96 57 -137 23 -26 24 -30 14 -66
-18 -58 -15 -117 9 -171 l20 -48 -23 -44 c-18 -34 -24 -64 -26 -134 -3 -54 -9
-96 -17 -105 -26 -30 -45 -80 -51 -132 -6 -49 -10 -56 -43 -75 -46 -26 -88
-86 -111 -155 -14 -42 -22 -53 -45 -60 -43 -11 -83 -56 -106 -119 l-21 -56
-61 -6 c-69 -6 -86 -21 -123 -111 -20 -47 -25 -51 -64 -58 -100 -17 -188 -81
-205 -149 -6 -25 -11 -27 -79 -31 -97 -6 -178 -49 -267 -140 l-66 -67 -12
-213 c-15 -255 -47 -680 -61 -798 -19 -152 -62 -405 -71 -415 -5 -5 -9 342 -9
873 l0 882 165 0 165 0 0 50 0 50 -37 -1 c-24 -1 -29 -3 -15 -6 18 -4 22 -11
22 -44 l0 -39 -247 -1 c-137 -1 -241 -3 -232 -6 13 -3 17 -25 22 -116 4 -62 7
-131 7 -153 l0 -42 -58 57 c-77 75 -169 120 -262 128 -70 6 -71 6 -86 42 -32
76 -128 141 -210 141 -40 0 -40 0 -57 53 -24 76 -64 111 -134 117 l-56 5 -12
43 c-18 59 -56 106 -108 131 -38 19 -45 27 -56 70 -14 57 -74 131 -119 150
-27 11 -30 18 -36 74 -6 56 -39 147 -54 147 -4 0 -7 39 -7 88 0 75 -3 93 -26
133 -26 46 -26 46 -8 80 26 50 32 107 16 165 l-13 51 32 36 c36 39 58 103 52
154 -3 21 0 33 8 33 7 0 26 12 43 26 40 34 65 115 55 181 -14 103 -105 291
-211 441 -61 86 -117 208 -149 327 -21 79 -28 130 -31 245 l-5 145 35 107 c83
247 205 422 354 505 51 29 83 40 83 30z m-558 -539 c-4 -191 9 -383 34 -503
20 -101 108 -270 249 -479 l120 -178 0 -88 c0 -72 -3 -92 -19 -109 l-19 -21
-38 22 c-80 45 -246 265 -342 456 -120 236 -167 408 -167 616 0 220 30 328
116 413 29 29 56 53 61 53 4 0 7 -82 5 -182z m3541 113 c69 -77 94 -159 103
-346 12 -221 -18 -357 -133 -612 -63 -140 -115 -222 -220 -353 -62 -76 -174
-180 -195 -180 -19 0 -38 63 -38 125 0 81 15 119 85 211 29 39 76 112 103 160
27 49 73 127 102 172 31 49 61 112 72 150 30 110 48 301 48 525 0 234 -2 231
73 148z m-3782 -711 c78 -225 140 -340 286 -535 71 -94 155 -201 188 -238 86
-96 104 -159 64 -223 -11 -19 -28 -34 -36 -34 -33 0 -148 75 -220 143 -141
134 -253 292 -324 456 -83 194 -114 340 -107 516 4 102 9 130 29 171 l23 49
23 -80 c13 -44 46 -145 74 -225z m4078 213 c30 -89 28 -195 -8 -368 -36 -174
-59 -244 -122 -365 -60 -116 -112 -187 -221 -298 -140 -143 -232 -212 -283
-212 -34 0 -55 38 -55 99 l0 58 138 164 c254 304 373 515 463 827 29 100 56
177 60 170 4 -7 17 -41 28 -75z m-4186 -654 c132 -261 263 -421 472 -575 164
-122 158 -115 153 -180 -3 -38 -11 -62 -25 -76 l-21 -20 -79 26 c-43 14 -109
44 -147 66 -83 48 -272 222 -333 305 -60 81 -149 265 -168 345 -23 99 -20 263
6 346 l22 69 28 -91 c16 -50 57 -147 92 -215z m4330 66 c-1 -89 -6 -127 -27
-200 -34 -116 -91 -234 -150 -312 -61 -81 -258 -263 -331 -308 -81 -48 -212
-98 -241 -91 -26 7 -54 52 -54 89 0 57 19 81 122 152 175 120 374 327 438 455
12 25 50 97 85 160 35 63 73 147 85 185 12 39 24 77 27 85 3 9 14 -9 26 -45
15 -46 20 -86 20 -170z m80 -368 c14 -85 0 -165 -47 -264 -84 -176 -158 -247
-407 -386 -149 -83 -206 -108 -321 -137 -111 -29 -112 -29 -105 24 4 24 15 68
27 98 19 52 23 55 73 71 67 21 183 81 285 146 139 89 363 337 439 485 30 59
40 52 56 -37z m-4553 -44 c59 -90 103 -142 201 -237 153 -150 284 -238 454
-306 82 -33 101 -60 112 -160 l6 -63 -39 7 c-96 18 -431 169 -544 246 -121 83
-210 192 -266 327 -24 59 -27 80 -26 158 1 93 9 146 20 144 4 0 41 -52 82
-116z m2260 -218 c11 -13 5 -15 -41 -15 -49 0 -51 1 -33 15 25 19 58 19 74 0z
m38 -82 l3 -43 -75 0 -76 0 0 45 0 46 73 -3 72 -3 3 -42z m-8 -118 l0 -45 -65
0 -65 0 0 45 0 45 65 0 65 0 0 -45z m0 -101 c0 -14 5 -34 10 -45 10 -18 7 -19
-76 -19 -78 0 -85 2 -79 18 4 9 10 29 13 45 4 26 6 27 68 27 62 0 64 -1 64
-26z m-2076 -141 c158 -79 224 -106 405 -162 l216 -68 3 -49 c5 -84 -4 -89
-155 -88 -288 3 -541 109 -648 270 -39 59 -85 169 -85 204 0 18 2 18 37 3 21
-8 123 -58 227 -110z m4271 55 c-63 -194 -206 -322 -435 -389 -59 -17 -111
-22 -244 -26 -155 -5 -171 -4 -183 13 -14 19 -18 91 -5 110 4 7 106 44 227 83
175 56 264 92 435 175 118 57 216 100 218 95 2 -5 -4 -33 -13 -61z m-2161 -25
c3 -10 8 -35 12 -55 l6 -38 -126 0 c-96 0 -124 3 -121 13 2 6 9 31 15 55 l11
42 99 0 c85 0 99 -2 104 -17z m26 -137 c0 -7 3 -28 6 -45 l7 -31 -148 0 -147
0 6 23 c3 12 6 32 6 45 0 22 2 22 135 22 108 0 135 -3 135 -14z m18 -158 l3
-48 -155 0 -156 0 0 43 c0 24 3 47 7 51 4 3 72 5 152 4 l146 -3 3 -47z m12
-123 l0 -45 -165 0 -165 0 0 45 0 45 165 0 165 0 0 -45z m10 -115 l0 -50 -175
0 -175 0 0 34 c0 68 -5 66 181 66 l169 0 0 -50z m0 -97 c0 -16 3 -45 6 -65 l7
-38 -182 0 -181 0 0 65 0 65 175 0 175 0 0 -27z"/>
<path d="M8357 3430 c-25 -20 -107 -146 -107 -164 0 -5 7 -3 15 4 12 10 21 0
58 -57 79 -124 99 -163 94 -183 -11 -44 12 -15 54 66 39 78 44 93 43 153 -1
138 -86 236 -157 181z m62 -46 c32 -23 71 -110 71 -161 0 -43 -26 -123 -40
-123 -13 0 -140 210 -140 231 0 25 43 69 67 69 10 0 29 -7 42 -16z"/>
<path d="M8206 3206 c-29 -39 -32 -48 -12 -40 8 3 19 -8 29 -28 41 -87 67
-151 63 -156 -3 -2 -44 19 -91 47 -48 28 -88 51 -90 51 -2 0 -14 -14 -26 -32
-18 -24 -19 -30 -7 -25 23 8 29 -2 88 -136 41 -94 50 -125 45 -150 l-7 -32 31
35 c35 41 37 48 14 46 -13 -1 -30 27 -64 104 -26 58 -46 106 -44 108 2 2 50
-23 107 -56 56 -33 104 -57 106 -53 1 4 -25 70 -59 147 -47 108 -60 146 -56
172 3 17 4 32 3 32 -2 0 -15 -15 -30 -34z"/>
<path d="M1574 3066 c-55 -47 -107 -86 -117 -86 -19 0 -15 -13 17 -55 15 -20
15 -20 9 3 -4 16 2 31 17 47 13 14 27 25 31 25 11 0 59 -83 59 -101 0 -8 -5
-31 -11 -52 -7 -28 -15 -37 -26 -33 -11 4 -9 -4 8 -32 34 -56 39 -59 39 -23 0
18 18 112 40 209 22 96 38 177 36 179 -2 2 -48 -34 -102 -81z m49 -38 c-21
-96 -21 -96 -50 -53 l-26 38 41 39 c23 21 43 38 45 38 3 0 -2 -28 -10 -62z"/>
<path d="M1768 2938 c5 -47 -88 -274 -111 -272 -10 1 -17 0 -17 -3 0 -5 62
-93 65 -93 1 0 0 13 -3 28 -2 17 15 73 46 152 41 101 54 125 70 124 17 0 15 6
-15 48 -19 26 -36 48 -37 48 -1 0 0 -15 2 -32z"/>
<path d="M7965 2908 c3 -18 7 -120 8 -225 1 -106 5 -193 8 -193 8 0 49 45 49
53 0 4 -6 6 -12 4 -9 -1 -14 15 -16 52 -3 49 0 57 29 87 18 19 36 34 39 34 16
0 41 -63 36 -88 -6 -25 -4 -24 28 13 31 35 33 40 18 51 -9 7 -53 64 -97 128
-44 63 -84 116 -88 116 -4 0 -5 -15 -2 -32z m72 -135 c17 -33 17 -33 -9 -60
-15 -15 -29 -25 -32 -22 -2 2 -6 39 -8 82 -3 75 -3 77 14 55 9 -13 25 -38 35
-55z"/>
<path d="M7840 2780 c-24 -18 -25 -23 -30 -172 l-5 -153 -59 100 c-33 55 -61
102 -62 104 -2 2 -17 -7 -35 -20 -29 -20 -30 -23 -12 -30 15 -6 24 -32 46
-135 30 -143 33 -174 15 -192 -22 -22 7 -13 42 13 22 16 28 25 18 25 -23 0
-24 4 -48 116 -12 54 -23 108 -26 119 -3 11 24 -29 60 -89 36 -59 67 -110 69
-113 3 -2 8 74 13 169 l7 173 23 -105 c27 -121 31 -157 19 -185 -7 -15 1 -12
33 14 36 28 40 35 27 45 -23 17 -81 294 -66 318 14 23 3 23 -29 -2z"/>
<path d="M1970 2753 c0 -5 4 -13 10 -19 6 -6 -3 -57 -25 -144 -39 -153 -51
-184 -65 -175 -6 3 -10 3 -10 0 0 -8 37 -41 63 -56 16 -9 17 -8 5 10 -10 16
-9 33 6 93 11 40 21 75 23 77 6 8 63 -53 64 -68 0 -22 14 13 23 59 5 28 5 31
-4 18 -14 -22 -29 -22 -57 0 -22 17 -22 17 -6 80 10 34 22 62 28 62 14 0 65
-48 66 -63 1 -7 1 -21 0 -32 -2 -17 0 -17 8 -5 26 37 12 64 -59 118 -39 29
-70 49 -70 45z"/>
<path d="M7543 2562 c-19 -15 -22 -30 -28 -167 l-7 -150 -55 110 c-31 61 -57
111 -58 113 -2 2 -15 -4 -29 -13 -22 -15 -24 -19 -12 -29 10 -7 26 -67 43
-159 23 -124 25 -151 14 -169 -18 -28 -11 -30 27 -6 28 17 30 22 17 32 -13 10
-56 184 -54 225 0 9 27 -36 59 -99 58 -113 59 -114 61 -75 1 22 4 101 8 175
l6 135 20 -100 c10 -55 19 -124 20 -152 0 -29 1 -53 2 -53 1 0 19 10 40 22 28
17 33 24 20 26 -19 4 -19 2 -52 180 -18 98 -22 139 -15 153 13 24 2 24 -27 1z"/>
<path d="M2194 2545 c-30 -21 -64 -106 -71 -178 -10 -110 32 -199 92 -199 106
0 148 310 51 377 -26 19 -46 19 -72 0z m93 -55 c23 -63 -4 -219 -48 -274 -68
-86 -116 55 -69 205 26 85 45 111 78 107 21 -2 30 -12 39 -38z"/>
<path d="M2408 2429 c12 -32 -36 -311 -56 -326 -18 -15 -18 -15 25 -37 41 -21
46 -20 32 3 -14 22 0 142 17 148 6 2 18 -37 29 -98 17 -94 33 -129 55 -129 6
0 6 9 0 23 -8 20 -40 168 -40 188 0 5 9 9 20 9 26 0 42 34 42 90 0 60 -20 90
-82 124 -48 26 -50 27 -42 5z m91 -80 c13 -38 -1 -104 -25 -113 -23 -9 -56 12
-50 32 3 9 8 40 12 67 3 28 8 53 11 58 8 14 41 -13 52 -44z"/>
<path d="M7187 2360 c-37 -43 -50 -102 -43 -184 10 -111 48 -178 101 -178 57
0 95 70 95 174 0 85 -11 132 -43 179 -32 48 -75 51 -110 9z m80 -28 c26 -40
47 -153 41 -222 -6 -62 -37 -102 -66 -84 -41 25 -79 173 -66 260 6 44 37 88
57 81 7 -2 22 -18 34 -35z"/>
<path d="M7077 2317 c-3 -9 -13 -17 -20 -17 -25 0 -69 -42 -88 -84 -34 -76
-19 -246 27 -297 41 -46 117 -5 142 77 16 54 7 54 -16 1 -52 -117 -125 -62
-139 103 -11 136 56 222 107 138 23 -38 25 -24 7 47 -9 35 -15 44 -20 32z"/>
<path d="M2680 2287 c-14 -6 -36 -34 -50 -62 -20 -42 -24 -64 -24 -140 0 -66
4 -98 17 -122 19 -35 53 -63 78 -63 19 0 73 40 65 48 -3 2 -12 -1 -20 -7 -23
-19 -67 -9 -89 21 -37 50 -22 223 24 282 40 50 87 21 97 -61 5 -40 7 -44 13
-23 9 32 11 105 3 97 -4 -4 -20 5 -36 18 -33 28 -43 30 -78 12z"/>
<path d="M2839 2227 c10 -13 12 -35 8 -85 -12 -144 -30 -254 -44 -268 -12 -12
-7 -17 40 -38 92 -40 96 -41 107 -11 17 46 12 58 -12 30 -21 -23 -26 -25 -55
-15 -17 6 -33 17 -35 23 -8 24 14 157 26 157 20 0 56 -30 56 -48 0 -15 2 -15
10 -2 5 8 10 31 10 50 0 23 -3 30 -9 21 -6 -9 -18 -11 -41 -6 l-32 7 7 67 c8
79 11 84 38 75 34 -10 57 -35 58 -63 1 -19 4 -15 9 14 4 22 7 41 6 42 -1 1
-88 37 -146 61 -13 5 -13 3 -1 -11z"/>
<path d="M6730 2173 c0 -7 -10 -13 -23 -13 -37 0 -69 -42 -74 -97 -5 -62 12
-92 67 -121 25 -13 48 -29 52 -35 14 -21 9 -94 -7 -107 -22 -18 -60 -5 -74 26
-18 40 -23 23 -9 -35 6 -29 15 -46 19 -40 4 7 20 13 36 15 37 4 69 43 78 93 9
56 -18 109 -70 138 -57 31 -65 40 -65 76 0 63 48 77 81 25 l20 -33 -6 45 c-7
44 -24 88 -25 63z"/>
<path d="M6561 2108 c-29 -8 -31 -11 -17 -21 12 -9 19 -42 27 -120 6 -59 9
-112 7 -117 -2 -5 -32 42 -68 105 -60 107 -67 115 -90 109 -34 -8 -36 -12 -16
-27 14 -10 20 -43 31 -167 13 -138 13 -157 -1 -178 -15 -23 -15 -24 5 -18 12
3 30 9 42 12 19 5 19 7 3 19 -14 10 -21 39 -30 141 -7 71 -11 130 -10 132 2 1
38 -56 81 -128 42 -73 78 -130 80 -128 2 1 -4 81 -12 177 -13 138 -14 177 -4
193 16 25 13 27 -28 16z"/>
<path d="M3279 2029 c-20 -38 -5 -114 33 -172 52 -76 59 -94 56 -135 -6 -71
-67 -47 -93 37 l-14 46 0 -61 c-1 -44 3 -61 12 -61 6 1 29 -7 50 -18 37 -19
38 -19 57 1 41 41 30 114 -30 209 -40 63 -50 87 -48 115 2 27 8 35 22 35 24 0
55 -42 66 -86 7 -29 8 -25 9 28 1 48 -2 61 -12 57 -8 -3 -20 2 -27 11 -19 23
-67 19 -81 -6z"/>
<path d="M6225 1987 c-81 -81 -63 -317 27 -367 23 -12 30 -12 54 0 89 48 94
311 7 380 -35 27 -50 25 -88 -13z m89 -41 c28 -58 35 -219 11 -270 -24 -50
-62 -48 -88 6 -28 57 -35 205 -12 263 15 40 20 46 44 43 19 -2 31 -13 45 -42z"/>
<path d="M3482 1991 c19 -30 -5 -341 -27 -357 -13 -10 -9 -14 29 -27 l46 -16
-14 22 c-9 15 -12 43 -9 90 6 72 4 71 60 50 7 -3 24 7 38 21 21 21 25 35 25
79 0 68 -24 101 -97 133 -65 29 -66 29 -51 5z m94 -52 c14 -15 19 -36 19 -75
0 -61 -20 -90 -54 -79 -18 6 -21 14 -21 68 0 106 16 130 56 86z"/>
<path d="M6091 1949 c-29 -9 -31 -12 -17 -22 11 -9 19 -52 32 -175 16 -157 16
-163 -2 -184 -16 -19 -17 -21 -2 -15 9 3 33 9 52 13 35 6 51 24 22 24 -17 0
-22 25 -37 202 -10 111 -10 140 0 152 16 19 6 20 -48 5z"/>
<path d="M3682 1921 c17 -27 -12 -339 -33 -351 -7 -5 -11 -11 -9 -13 15 -14
146 -65 152 -59 3 4 9 25 13 47 l6 40 -16 -29 c-14 -24 -21 -27 -47 -22 -52
10 -57 20 -51 99 3 40 9 76 13 80 13 15 60 -16 66 -42 10 -45 12 -47 13 -11 1
19 4 53 7 75 5 37 5 38 -8 16 -7 -13 -17 -23 -23 -22 -59 11 -57 8 -50 85 4
39 9 73 12 76 2 2 21 -4 41 -15 29 -16 38 -28 43 -55 5 -29 7 -31 8 -8 0 14 4
34 7 42 5 12 -12 24 -70 51 -43 19 -79 35 -82 35 -2 0 1 -9 8 -19z"/>
<path d="M5912 1877 c-74 -26 -83 -32 -78 -51 3 -12 6 -31 6 -43 0 -13 5 -23
10 -23 6 0 10 13 10 29 0 30 37 69 51 53 3 -4 18 -76 33 -161 26 -145 26 -154
10 -172 -21 -23 -20 -23 40 -3 41 14 45 18 30 28 -12 9 -25 59 -45 166 -16 84
-26 157 -23 162 12 19 54 7 69 -19 l16 -28 -6 40 c-11 66 -5 65 -123 22z"/>
<path d="M3954 1795 c-42 -17 -72 -81 -80 -170 -8 -86 7 -148 46 -187 35 -35
69 -36 100 -3 27 29 20 32 -16 9 -21 -14 -29 -15 -49 -4 -13 7 -29 26 -36 41
-17 42 -7 205 14 246 20 37 48 56 72 47 22 -9 45 -56 46 -96 0 -28 2 -30 9
-13 12 27 12 108 1 100 -5 -3 -12 -1 -16 5 -3 6 -18 16 -33 24 -23 12 -33 12
-58 1z"/>
<path d="M5736 1623 c-4 -98 -10 -199 -15 -225 l-8 -47 30 16 c26 13 28 17 14
25 -13 7 -17 23 -17 62 0 51 1 53 40 75 l39 22 16 -38 c9 -21 13 -48 10 -60
-7 -28 -1 -29 37 -2 23 17 27 24 16 30 -7 4 -42 77 -78 163 -36 86 -68 156
-71 156 -4 0 -10 -80 -13 -177z m48 18 c27 -67 27 -67 -16 -92 -17 -9 -18 -3
-18 77 0 48 2 85 4 83 2 -2 16 -33 30 -68z"/>
<path d="M4139 1697 c16 -20 -26 -317 -47 -334 -9 -7 -14 -15 -11 -17 12 -11
79 -34 79 -26 0 4 -5 10 -12 12 -9 3 -9 25 0 99 29 215 34 238 51 242 11 3 4
9 -21 20 -45 21 -54 21 -39 4z"/>
<path d="M5480 1645 c-30 -19 -47 -35 -37 -35 9 0 17 -3 17 -7 0 -5 9 -66 20
-138 23 -152 24 -197 8 -213 -20 -20 0 -13 45 15 29 19 37 28 25 31 -18 3 -23
20 -34 100 -9 69 4 67 58 -8 44 -63 52 -68 81 -46 15 11 15 15 3 19 -8 3 -33
31 -56 61 l-42 56 22 45 c24 50 21 105 -7 138 -23 24 -41 21 -103 -18z m80
-14 c5 -11 10 -40 10 -66 0 -37 -5 -51 -27 -73 l-28 -27 -12 80 c-11 72 -11
81 4 93 24 17 41 15 53 -7z"/>
<path d="M4299 1464 c-35 -80 -72 -154 -82 -164 -17 -19 -16 -20 13 -35 30
-16 31 -16 24 9 -6 27 12 96 26 96 5 0 25 -8 45 -17 34 -16 35 -18 35 -74 0
-37 -4 -59 -12 -62 -7 -2 2 -12 20 -21 19 -10 35 -16 37 -14 1 2 -1 32 -5 68
-5 36 -11 131 -15 213 -4 81 -10 147 -14 147 -4 0 -36 -66 -72 -146z m54 -22
l6 -82 -32 16 c-18 9 -33 18 -35 19 -2 2 9 32 25 68 15 36 28 65 29 64 1 -1 4
-39 7 -85z"/>
<path d="M5291 1552 c-46 -26 -76 -48 -68 -50 20 -4 22 -10 47 -158 23 -139
25 -185 8 -202 -23 -23 7 -10 87 36 l80 47 3 48 c4 57 -13 63 -22 7 -5 -31
-14 -45 -43 -65 -21 -14 -41 -25 -44 -25 -7 0 -29 112 -29 147 0 14 11 25 31
34 28 11 33 11 46 -7 13 -17 14 -14 8 36 -8 61 -25 92 -25 44 0 -23 -7 -34
-31 -48 -17 -10 -33 -15 -36 -12 -7 6 -22 83 -23 113 0 14 12 29 34 42 43 27
54 26 66 -1 9 -23 9 -23 9 2 -1 62 -8 63 -98 12z"/>
<path d="M4531 1502 c16 -25 -35 -332 -57 -349 -14 -10 -5 -17 55 -47 39 -20
74 -36 79 -36 5 0 14 17 20 39 16 51 14 62 -4 29 -8 -16 -23 -28 -34 -28 -31
0 -70 22 -70 39 0 9 11 81 25 161 17 97 30 149 40 156 14 10 11 15 -18 33 -42
26 -51 26 -36 3z"/>
<path d="M5130 1448 c-14 -5 -47 -23 -74 -40 -42 -27 -46 -33 -29 -39 16 -6
25 -31 46 -141 30 -149 32 -179 15 -196 -22 -22 7 -12 52 18 28 18 38 30 27
30 -20 0 -32 27 -42 92 -6 41 -4 46 20 62 39 26 65 75 65 124 0 72 -32 108
-80 90z m37 -70 c8 -25 9 -47 2 -71 -9 -32 -44 -75 -54 -66 -2 3 -11 39 -20
79 -15 70 -15 75 2 88 30 22 57 11 70 -30z"/>
<path d="M4877 1280 c-55 -43 -59 -199 -8 -299 56 -109 146 -102 172 13 22
100 -22 248 -85 287 -39 24 -47 24 -79 -1z m70 -18 c43 -27 78 -220 54 -294
-43 -129 -142 34 -129 211 6 79 33 109 75 83z"/>
<path d="M4648 7971 c-152 -33 -247 -71 -367 -148 -149 -95 -283 -236 -369
-386 -56 -97 -108 -245 -128 -360 -23 -131 -15 -328 20 -460 101 -390 404
-689 804 -794 82 -21 121 -26 247 -27 205 -1 324 24 490 104 293 142 511 406
591 715 32 123 42 312 25 436 -62 429 -379 786 -803 905 -129 36 -378 43 -510
15z m230 -167 c7 4 203 -516 197 -522 -2 -2 -34 7 -71 19 -38 12 -74 23 -80
25 -7 1 -16 63 -23 166 -7 89 -14 168 -16 173 -2 6 -1 -67 2 -161 l6 -171 -64
-7 c-35 -4 -84 -16 -108 -27 -24 -11 -45 -18 -46 -17 -2 2 41 126 94 276 53
151 97 267 99 258 2 -9 7 -14 10 -12z m-342 -637 c-59 -72 -89 -150 -95 -248
l-6 -86 -233 175 c-128 96 -230 177 -227 180 5 6 279 17 493 20 l103 2 -35
-43z m1220 25 c7 -4 -81 -79 -213 -182 -124 -96 -229 -176 -233 -178 -4 -2 -9
39 -12 91 -4 105 -30 171 -97 249 l-35 41 289 -7 c159 -4 295 -11 301 -14z
m-401 -789 c41 -150 75 -275 75 -278 0 -3 -115 73 -256 167 l-255 173 41 7
c101 17 217 99 277 194 23 36 29 41 35 27 4 -10 41 -141 83 -290z m-845 256
c54 -89 172 -170 271 -187 l42 -7 -253 -168 c-139 -92 -254 -166 -256 -165 -4
5 160 568 166 568 3 0 16 -19 30 -41z"/>
<path d="M4670 4265 c0 -13 27 -15 180 -15 153 0 180 2 180 15 0 13 -27 15
-180 15 -153 0 -180 -2 -180 -15z"/>
<path d="M4722 4213 c43 -3 58 -8 61 -21 4 -16 5 -16 6 1 1 14 12 17 75 17 63
0 75 -3 79 -17 4 -16 5 -16 6 -1 1 12 12 18 44 21 23 2 -41 3 -143 3 -102 0
-159 -1 -128 -3z"/>
<path d="M4552 4135 c0 -16 2 -22 5 -12 2 9 2 23 0 30 -3 6 -5 -1 -5 -18z"/>
</g>
</svg>
